<?xml version="1.0" standalone="no"?>
<!DOCTYPE svg PUBLIC "-//W3C//DTD SVG 20010904//EN"
 "http://www.w3.org/TR/2001/REC-SVG-20010904/DTD/svg10.dtd">
<svg version="1.0" xmlns="http://www.w3.org/2000/svg"
 width="1080.000000pt" height="1080.000000pt" viewBox="0 0 1080.000000 1080.000000"
 preserveAspectRatio="xMidYMid meet">

<g transform="translate(0.000000,1080.000000) scale(0.100000,-0.100000)"
fill="#000000" stroke="none">
<path d="M0 5400 l0 -5400 5400 0 5400 0 0 5400 0 5400 -5400 0 -5400 0 0
-5400z m5768 4287 c2 -156 5 -187 17 -187 12 0 15 31 17 187 2 132 6 187 15
190 28 10 38 -42 41 -224 3 -149 7 -183 18 -183 11 0 14 23 14 114 0 109 9
147 25 108 4 -9 9 -71 11 -137 2 -79 8 -133 19 -157 26 -65 20 -105 -22 -147
-21 -20 -53 -47 -71 -61 -30 -23 -37 -40 -83 -200 -70 -249 -153 -503 -195
-605 -31 -73 -57 -112 -158 -234 -67 -81 -168 -206 -226 -278 -58 -73 -108
-131 -112 -130 -8 2 -229 278 -235 293 -2 7 59 90 137 185 78 96 164 208 191
249 28 41 143 261 257 489 l207 414 0 206 c0 172 3 212 17 244 9 20 22 37 27
37 7 0 12 -64 13 -175 4 -233 22 -235 26 -3 1 95 4 179 7 186 3 8 13 12 22 10
16 -3 18 -21 21 -191z m-164 -215 c-3 -5 -44 135 -44 149 0 7 8 21 18 32 16
19 17 15 22 -79 3 -55 5 -100 4 -102z m-455 77 c-6 -12 -47 -59 -90 -104 -73
-76 -92 -105 -70 -105 5 0 45 22 88 49 91 56 183 104 189 98 16 -16 -30 -57
-232 -203 -63 -47 -8 -34 108 24 68 34 138 65 157 68 32 7 33 6 22 -15 -17
-31 -93 -83 -199 -137 -51 -26 -95 -50 -97 -55 -12 -19 16 -16 74 7 35 14 79
28 99 31 l37 6 -25 -28 c-56 -60 -331 -204 -403 -210 -21 -2 -51 -24 -118 -91
l-89 -89 0 38 c0 71 -36 113 -118 138 l-42 12 90 92 c68 69 90 99 90 119 0 39
39 213 62 274 33 89 50 64 53 -81 2 -82 6 -102 22 -120 32 -35 43 -62 43 -107
0 -29 4 -40 13 -37 7 2 12 23 12 54 -1 39 -7 59 -27 85 l-26 34 180 137 c177
135 221 161 197 116z m901 -295 c0 -12 -112 -373 -138 -441 -8 -23 22 -13 98
32 69 42 120 57 120 36 0 -18 -46 -65 -162 -164 l-121 -104 -244 -604 c-134
-332 -246 -614 -249 -626 -4 -13 -2 -23 2 -23 5 0 47 21 93 45 46 25 85 44 87
43 1 -2 27 -95 57 -208 50 -187 53 -206 38 -218 -41 -34 -264 -134 -340 -153
-166 -42 -285 -1 -345 118 -42 84 -58 262 -35 389 11 58 13 61 120 162 60 57
109 109 109 115 0 6 -10 21 -21 34 -15 15 -19 26 -12 35 35 47 321 399 384
474 65 77 82 107 117 195 46 119 120 349 189 590 l48 167 52 41 c60 47 62 59
-21 -133 -31 -72 -56 -134 -56 -138 0 -4 6 -8 13 -8 8 0 40 62 76 148 35 81
74 162 88 180 26 34 53 43 53 16z m284 -219 c41 -62 166 -87 263 -52 l42 16
16 -52 c37 -119 132 -196 243 -198 l53 -2 -7 -59 -7 -59 52 26 c55 28 122 35
146 15 23 -19 29 -74 11 -108 -18 -34 -82 -83 -142 -107 l-39 -15 7 -113 c3
-61 7 -135 7 -163 l1 -51 -221 -7 c-122 -4 -223 -6 -224 -4 -1 2 -5 27 -9 56
l-7 52 55 0 c108 0 250 68 315 152 39 49 2 41 -55 -12 -29 -28 -80 -63 -111
-78 -51 -24 -70 -27 -158 -27 -89 0 -106 3 -157 28 -73 36 -140 110 -159 174
-16 54 -16 142 0 199 8 28 8 57 0 101 -8 44 -8 81 0 132 12 75 47 181 61 181
4 0 15 -11 24 -25z m-3833 -130 c11 -31 24 -96 29 -143 4 -48 16 -121 25 -162
21 -95 16 -210 -13 -266 -44 -85 -103 -115 -231 -115 -135 -1 -230 33 -312
111 -39 37 -59 49 -59 34 0 -38 119 -127 207 -154 43 -13 93 -20 149 -20 l84
0 0 -96 c0 -73 3 -95 13 -91 6 2 39 13 71 23 37 12 61 25 64 36 2 9 23 23 46
31 352 124 741 257 750 257 6 0 25 -21 41 -46 17 -25 61 -73 99 -106 38 -34
77 -75 86 -91 17 -27 17 -33 4 -69 -19 -54 -17 -85 6 -137 11 -24 20 -45 20
-46 0 -6 -121 -71 -257 -139 -133 -66 -304 -139 -399 -170 l-52 -17 24 -75
c12 -41 28 -100 34 -130 l12 -54 -55 -108 c-61 -118 -126 -263 -163 -359 l-24
-63 30 -15 30 -15 -22 -53 c-11 -28 -43 -115 -71 -192 -41 -116 -50 -152 -51
-212 -1 -67 -3 -72 -21 -68 -11 2 -206 17 -433 32 -227 15 -418 30 -424 34 -8
5 -3 18 15 39 27 31 27 34 27 177 l0 146 -52 113 c-28 63 -54 112 -57 109 -3
-4 -80 -201 -171 -438 l-166 -432 -65 2 -64 3 -107 -343 c-94 -301 -108 -353
-112 -434 -6 -88 -33 -240 -54 -293 -15 -39 -21 -9 -24 119 l-3 114 -59 -72
c-129 -161 -204 -220 -214 -171 -1 9 34 62 78 120 44 57 80 107 80 112 0 27
-34 -3 -95 -84 -76 -101 -114 -141 -159 -169 -30 -18 -56 -16 -56 5 0 7 50 70
110 141 74 87 107 132 100 139 -6 6 -13 6 -18 1 -5 -6 -53 -62 -108 -125 -54
-63 -103 -118 -109 -122 -12 -9 -55 -11 -55 -2 0 17 34 60 122 157 61 66 96
112 92 119 -5 8 -44 -27 -110 -97 -80 -85 -106 -107 -115 -98 -18 18 21 63
195 223 152 139 154 142 171 203 9 34 47 177 84 317 l68 255 -51 9 c-28 5 -52
10 -53 11 -5 3 201 646 287 900 163 480 268 733 331 793 93 90 347 252 361
229 5 -9 24 -3 72 20 50 25 67 39 73 60 13 47 9 313 -5 371 l-14 52 -48 0
c-69 0 -99 14 -115 55 -23 53 -19 102 10 130 13 14 31 25 40 25 29 0 76 -31
85 -56 10 -24 10 -24 47 -9 53 22 104 65 131 111 19 33 22 51 20 112 l-3 72
49 0 c66 0 128 31 152 75 18 34 21 35 59 30 32 -5 47 -2 75 18 l35 24 18 -28
c10 -15 27 -53 38 -84z m5869 54 c0 -17 65 -39 101 -33 31 5 37 2 59 -33 31
-48 81 -73 145 -73 l50 0 0 -78 c0 -69 3 -84 28 -120 27 -41 115 -102 149
-102 9 0 20 9 23 20 7 22 53 50 84 50 30 0 61 -47 61 -92 0 -82 -44 -122 -129
-116 l-45 2 -13 -49 c-8 -28 -17 -95 -20 -149 -7 -110 -13 -102 55 -80 16 5
27 -12 67 -106 53 -122 39 -108 200 -205 44 -26 111 -73 150 -105 61 -50 76
-69 114 -146 97 -197 227 -563 467 -1315 l15 -47 72 19 c40 10 75 19 80 19 4
0 7 -94 7 -210 l0 -209 -37 -10 c-21 -5 -54 -14 -73 -19 -19 -5 -34 -13 -34
-18 1 -5 27 -109 59 -231 l58 -223 111 -99 c168 -151 250 -237 243 -255 -4 -9
-10 -16 -15 -16 -4 0 -50 47 -102 105 -52 58 -98 105 -102 105 -26 0 -6 -31
77 -122 92 -99 132 -154 121 -165 -19 -19 -66 19 -163 132 -59 69 -110 125
-114 125 -26 0 -6 -31 91 -143 61 -70 110 -134 110 -142 0 -27 -45 -16 -88 21
-23 19 -78 83 -123 140 -56 73 -85 102 -92 95 -7 -7 -7 -14 0 -23 157 -201
178 -238 135 -238 -19 0 -130 109 -211 208 l-51 63 0 -130 c0 -73 -4 -131 -9
-131 -19 0 -71 275 -71 373 0 36 -128 469 -143 484 -3 3 -31 -1 -61 -8 -31 -7
-58 -10 -60 -8 -11 11 -156 407 -156 426 0 21 -246 672 -259 686 -4 4 -31 -45
-60 -110 -50 -115 -51 -120 -50 -208 1 -156 10 -200 49 -240 18 -19 32 -36 29
-38 -2 -2 -99 -10 -215 -18 l-212 -14 -398 498 c-220 273 -400 501 -402 507
-2 5 11 27 28 49 l32 40 -26 34 -26 34 24 81 23 81 -36 12 c-20 7 -71 25 -114
42 l-79 29 -85 130 c-91 139 -135 181 -248 236 -63 31 -185 72 -215 72 -14 0
-19 12 -24 60 l-7 60 -53 0 -53 0 -6 83 c-4 45 -7 112 -7 149 l0 68 40 20 c50
25 54 25 93 -4 18 -12 241 -95 497 -184 256 -89 501 -174 544 -190 l80 -30 28
39 c15 22 34 39 42 39 7 0 31 -13 54 -30 l41 -29 3 42 3 42 100 6 c135 9 209
38 298 117 34 32 48 62 29 62 -5 0 -28 -19 -52 -41 -24 -23 -73 -56 -109 -73
-57 -26 -80 -31 -166 -34 -57 -2 -119 1 -143 7 -129 35 -177 175 -133 388 12
55 21 119 21 140 0 54 25 148 57 211 24 48 43 66 43 41z m-3956 -385 c3 -9 6
-47 6 -86 l0 -71 -46 7 c-26 3 -65 6 -86 6 l-40 0 26 30 c23 28 46 86 46 118
0 19 86 16 94 -4z m56 -91 c0 -17 -4 -35 -10 -38 -6 -4 -10 14 -10 47 0 38 3
49 10 38 5 -8 10 -29 10 -47z m-343 -73 c26 -28 31 -30 59 -20 17 6 77 9 135
8 l104 -3 2 -165 c3 -156 2 -167 -20 -205 -12 -22 -40 -50 -62 -63 -34 -19
-50 -22 -107 -19 l-68 4 1 -31 c0 -17 4 -56 8 -86 5 -30 7 -56 6 -58 -3 -4
-397 -32 -447 -32 l-38 0 0 46 c0 34 6 54 24 75 13 15 26 33 28 40 2 6 18 -2
37 -20 27 -25 42 -31 78 -31 39 0 50 5 79 36 19 19 34 39 34 44 0 5 14 2 31
-7 69 -35 148 18 157 105 3 33 -1 59 -11 79 -9 17 -14 33 -11 36 3 3 -7 12
-23 21 -36 18 -100 88 -113 122 -14 36 -12 81 5 114 26 49 71 53 112 10z m362
-176 c-21 -25 -29 -15 -29 39 l1 52 20 -38 c16 -30 18 -42 8 -53z m3869 -1735
l484 -603 86 -54 c252 -158 430 -300 389 -309 -11 -3 -66 32 -151 96 -74 56
-139 101 -145 101 -29 0 -2 -31 81 -90 155 -111 221 -180 202 -211 -16 -26
-74 6 -208 114 -163 131 -166 134 -166 113 0 -9 60 -63 133 -122 120 -96 191
-174 174 -191 -13 -12 -58 9 -99 46 -105 95 -262 220 -270 215 -15 -10 -7 -19
102 -109 112 -94 123 -105 146 -160 l15 -36 -23 12 c-29 15 -167 122 -267 207
l-76 65 -5 -119 c-5 -116 -11 -144 -31 -144 -15 0 -27 41 -48 165 -22 130 -39
166 -135 295 -135 181 -483 582 -800 922 l-137 148 118 145 c111 137 119 144
133 126 8 -10 233 -290 498 -622z m-5265 74 c20 -8 37 -19 37 -24 0 -5 -14
-31 -31 -59 -17 -28 -28 -54 -24 -58 4 -4 83 -9 176 -11 l169 -3 10 -38 c9
-32 5 -60 -28 -186 l-39 -149 -254 3 c-270 3 -323 10 -390 54 -52 35 -82 100
-76 168 4 47 76 263 130 392 l16 37 133 -55 c73 -31 150 -62 171 -71z m5031
-332 l105 -118 -106 -7 c-58 -4 -108 -4 -111 -2 -3 3 6 27 20 54 24 47 25 48
8 97 -28 82 -32 95 -26 95 2 0 52 -53 110 -119z m-6086 -50 c144 -10 265 -21
268 -23 3 -3 -45 -339 -105 -747 -61 -408 -110 -756 -109 -774 2 -32 -639
-2875 -652 -2890 -6 -7 -336 76 -348 87 -2 3 192 854 433 1892 305 1317 434
1889 426 1897 -7 7 -13 3 -19 -14 -5 -13 -204 -865 -442 -1894 -238 -1028
-433 -1871 -434 -1872 -1 -1 -83 20 -184 45 -134 35 -182 51 -182 62 0 8 67
418 150 910 150 896 253 1533 330 2030 42 269 60 356 107 513 22 75 29 87 48
87 12 0 47 9 79 20 129 44 254 130 331 228 53 66 110 176 100 191 -10 17 -22
5 -48 -52 -55 -120 -168 -232 -297 -297 -64 -32 -159 -64 -166 -57 -14 14 130
319 218 461 27 45 73 113 101 152 50 70 51 71 91 67 23 -2 159 -12 304 -22z
m461 -32 l133 -10 30 -35 c37 -42 89 -70 157 -85 49 -10 50 -11 65 -62 32
-111 56 -217 75 -327 28 -167 32 -200 23 -200 -9 0 -41 21 -110 73 -100 76
-197 234 -222 365 -13 66 -26 85 -37 56 -9 -25 21 -136 61 -219 54 -116 174
-240 293 -306 29 -16 30 -17 41 -153 10 -115 9 -148 -4 -209 -56 -266 -107
-994 -189 -2701 -13 -280 -25 -510 -27 -511 -6 -5 -300 -36 -304 -32 -2 2 27
827 65 1833 41 1082 65 1833 60 1838 -6 6 -12 6 -18 0 -4 -5 -38 -830 -75
-1834 -37 -1004 -69 -1830 -71 -1835 -3 -10 -523 -71 -531 -62 -3 2 45 672
105 1488 l110 1484 108 728 c65 442 112 727 118 727 6 0 71 -5 144 -11z m6679
-74 c71 -99 143 -218 203 -337 62 -122 122 -268 114 -276 -3 -3 -36 4 -74 16
-57 19 -68 26 -64 41 9 34 -101 134 -269 246 -40 26 -61 48 -70 71 -14 38 -38
54 -38 24 0 -11 -2 -20 -5 -20 -2 0 -29 16 -59 35 -36 23 -83 70 -136 135 -75
92 -79 100 -58 104 13 3 104 10 203 17 99 6 182 13 184 15 10 9 19 0 69 -71z
m-811 -127 c60 -73 119 -147 132 -164 19 -26 33 -104 102 -565 l80 -534 113
-1502 c61 -827 109 -1503 106 -1503 -3 -1 -123 12 -267 27 l-261 27 -6 90 c-4
50 -33 825 -66 1721 -70 1917 -68 1865 -86 1865 -8 0 -14 -8 -14 -17 -1 -10
29 -833 67 -1830 37 -997 64 -1815 61 -1818 -5 -5 -227 14 -235 20 -2 1 -23
157 -48 346 -74 574 -156 1149 -220 1545 -54 333 -59 1244 -10 1625 6 39 11
48 38 61 105 50 226 176 286 297 35 69 75 207 66 230 -10 26 -29 -6 -42 -72
-7 -34 -31 -100 -54 -147 -34 -68 -58 -101 -124 -165 -45 -44 -99 -90 -122
-102 l-40 -22 14 97 c26 194 92 467 137 574 l16 37 82 4 c46 1 106 4 134 5
l51 2 110 -132z m-4412 -228 c275 -11 523 -23 551 -26 l51 -5 11 -61 c6 -34 9
-64 6 -67 -5 -6 -1229 47 -1281 55 -18 3 -33 8 -33 12 0 5 23 33 50 64 50 56
51 57 98 52 26 -2 272 -13 547 -24z m4661 -103 c9 -16 24 -81 35 -145 23 -133
44 -186 76 -190 36 -5 56 38 62 138 l6 89 43 -37 42 -37 424 -1830 c233 -1007
420 -1832 416 -1835 -15 -9 -340 -93 -344 -89 -10 11 -649 2852 -652 2900 -3
49 -146 1037 -160 1099 -5 24 -4 24 16 -5 12 -16 28 -43 36 -58z m-2185 -13
l95 -7 12 -406 c7 -223 17 -440 23 -481 13 -90 30 -116 127 -190 l69 -53 6
-74 c6 -77 11 -93 26 -77 8 9 -41 1025 -56 1144 -4 36 -12 64 -18 62 -11 -3
-12 26 20 -572 13 -245 23 -446 22 -447 -2 -1 -35 25 -74 58 -46 38 -75 71
-82 92 -17 50 -29 264 -37 620 l-7 327 304 -1 c167 -1 347 -4 399 -8 l94 -6
33 -85 c39 -99 118 -369 110 -376 -8 -9 -134 53 -206 100 -83 56 -196 173
-240 249 -31 54 -51 72 -51 45 0 -33 72 -132 154 -213 93 -91 181 -151 289
-195 32 -13 62 -29 66 -35 5 -5 27 -93 49 -195 156 -713 332 -1832 497 -3167
30 -246 59 -479 64 -518 5 -38 7 -71 6 -73 -2 -3 -617 -62 -645 -62 -10 0 -20
15 -27 37 -5 21 -36 121 -67 223 -232 753 -473 1889 -592 2793 -12 88 -21 127
-30 127 -7 0 -15 -4 -18 -8 -2 -4 -10 -712 -16 -1572 -6 -860 -12 -1565 -13
-1566 -5 -4 -606 42 -611 47 -11 11 -90 841 -126 1319 -55 742 -74 1291 -67
1860 5 382 18 693 32 755 3 12 33 36 77 60 110 61 233 188 286 294 42 82 53
126 31 119 -7 -2 -20 -25 -30 -52 -47 -119 -169 -258 -289 -328 -35 -21 -65
-36 -67 -34 -10 9 42 341 67 435 l11 41 152 0 c84 0 195 -3 248 -6z m-2456
-50 c330 -15 603 -29 607 -33 10 -9 750 -4092 743 -4100 -12 -11 -830 -240
-836 -233 -8 10 -611 3563 -606 3569 3 2 36 -18 74 -45 62 -46 83 -54 83 -33
0 4 -38 35 -85 69 -59 43 -87 70 -91 89 -6 22 -8 24 -13 10 -5 -15 -40 7 -200
123 -129 95 -197 138 -203 132 -10 -10 37 -47 317 -250 l87 -64 -6 -51 c-3
-29 -60 -817 -127 -1752 -67 -935 -123 -1702 -125 -1704 -4 -5 -775 57 -781
62 -13 13 111 2403 157 3037 43 588 94 846 218 1113 l46 99 70 -6 c39 -3 341
-18 671 -32z m5433 -105 c30 -10 65 -20 80 -22 19 -3 29 -13 39 -43 40 -112
80 -303 128 -614 84 -539 134 -842 311 -1904 90 -544 163 -990 162 -991 -10
-7 -363 -93 -367 -90 -2 3 -190 807 -417 1787 -227 981 -416 1794 -419 1807
l-6 25 33 -27 c83 -67 168 -119 182 -114 10 4 16 18 16 37 0 30 1 31 22 16 28
-20 72 -21 87 -2 7 8 9 25 5 40 -6 24 -4 26 25 26 38 0 56 34 41 76 -9 23 -8
25 7 19 10 -4 42 -15 71 -26z m-8478 -3608 c411 -108 500 -134 500 -147 0 -13
-41 -197 -45 -202 -1 -1 -59 18 -130 43 -70 25 -129 44 -130 43 -11 -13 -64
-376 -63 -421 l3 -59 -93 -33 c-51 -19 -150 -61 -220 -95 -152 -73 -201 -83
-252 -48 -46 31 -48 49 -8 72 129 75 236 183 265 268 17 51 39 201 48 329 l7
96 -69 22 c-96 31 -93 27 -82 91 15 89 19 100 32 100 6 0 113 -27 237 -59z
m9219 -64 c17 -96 19 -91 -66 -117 -43 -13 -81 -26 -85 -29 -9 -8 10 -249 27
-338 8 -41 27 -96 42 -124 32 -60 124 -148 211 -204 34 -22 61 -46 60 -54 -6
-30 -58 -56 -111 -55 -43 1 -76 13 -185 66 -72 36 -173 80 -223 98 l-90 33 6
61 c5 46 -1 103 -24 230 -16 92 -32 170 -35 173 -2 3 -57 -14 -122 -36 -64
-23 -119 -39 -122 -37 -9 10 -50 196 -43 200 3 3 137 39 296 81 160 43 319 85
355 95 99 28 96 29 109 -43z m-7359 2 c0 -22 -52 -344 -57 -349 -2 -3 -91 -7
-196 -10 l-192 -5 2 -69 c4 -120 50 -179 192 -251 55 -27 55 -27 30 -41 -103
-57 -252 -82 -397 -65 -53 7 -107 14 -120 18 l-24 6 6 121 c3 66 9 158 12 204
l6 82 -50 0 c-27 0 -64 3 -82 6 l-32 7 7 116 c4 64 8 123 11 131 3 13 82 24
426 62 502 54 458 51 458 37z m5725 -92 l390 -43 6 -54 c4 -30 9 -92 13 -137
l5 -83 -91 0 -91 0 6 -57 c4 -32 9 -124 13 -204 l7 -146 -25 -6 c-72 -18 -221
-27 -294 -18 -103 13 -234 58 -234 80 0 4 19 17 42 27 68 31 153 98 171 137
10 19 20 69 24 111 l6 76 -162 0 c-88 0 -161 1 -162 3 0 1 -10 82 -23 180 -19
157 -20 177 -6 176 8 0 190 -19 405 -42z m-7450 -659 c-4 -24 -16 -64 -27 -89
-18 -42 -28 -51 -111 -97 -376 -208 -666 -276 -731 -170 -23 38 70 157 196
252 l38 28 25 -30 c32 -38 84 -56 139 -48 22 4 103 36 178 72 108 51 273 120
296 124 2 0 1 -19 -3 -42z m1709 -24 c88 -30 149 -56 167 -73 30 -27 52 -80
40 -98 -10 -17 -882 -23 -920 -7 -31 13 -31 14 -31 85 0 70 0 71 24 65 14 -3
68 -11 122 -16 154 -16 310 11 409 72 16 10 34 18 40 18 5 0 72 -21 149 -46z
m7246 -103 c80 -38 162 -72 182 -75 54 -10 112 9 142 45 26 31 27 31 53 14 49
-32 191 -176 203 -205 20 -48 6 -76 -45 -96 -111 -42 -345 27 -653 194 -120
65 -122 67 -141 117 -10 27 -21 67 -25 87 l-7 37 73 -25 c40 -13 138 -55 218
-93z m-1780 69 c33 -17 90 -37 126 -46 75 -17 248 -19 339 -4 33 5 61 10 63
10 1 0 2 -32 2 -71 0 -101 13 -98 -392 -92 l-327 6 -3 94 -3 93 55 19 c73 26
71 26 140 -9z"/>
<path d="M6472 8763 c-23 -44 -43 -125 -40 -160 4 -45 45 -76 75 -57 25 15 18
29 -13 29 -41 0 -46 31 -18 111 13 38 24 75 24 82 0 18 -18 15 -28 -5z"/>
<path d="M6643 8763 c-18 -6 -16 -40 1 -46 8 -3 20 1 27 9 10 12 9 18 -2 28
-8 8 -20 12 -26 9z"/>
<path d="M6334 8745 c-4 -9 -2 -21 4 -27 15 -15 44 -1 40 19 -4 23 -36 29 -44
8z"/>
<path d="M7007 8629 c-28 -16 -11 -28 33 -22 36 5 40 3 50 -21 11 -29 30 -27
30 3 0 41 -69 66 -113 40z"/>
<path d="M7050 8587 c0 -18 -30 -44 -54 -48 -31 -6 -32 -29 -1 -29 16 0 38 12
56 29 31 32 38 61 14 61 -8 0 -15 -6 -15 -13z"/>
<path d="M6615 8473 c-49 -14 -138 -13 -212 3 -22 4 -33 3 -33 -5 0 -50 311
-44 328 7 5 15 -18 14 -83 -5z"/>
<path d="M2444 8735 c-4 -9 -2 -21 4 -27 15 -15 44 -1 40 19 -4 23 -36 29 -44
8z"/>
<path d="M2340 8715 c0 -9 14 -43 31 -76 37 -75 36 -113 -4 -117 -35 -4 -31
-26 5 -30 31 -4 58 29 58 68 0 31 -65 170 -80 170 -5 0 -10 -7 -10 -15z"/>
<path d="M2194 8699 c-8 -14 21 -43 35 -35 6 4 11 16 11 27 0 21 -34 27 -46 8z"/>
<path d="M2440 8434 c-53 -17 -146 -22 -212 -11 -39 7 -48 6 -48 -7 0 -48 312
-28 328 22 5 15 -10 14 -68 -4z"/>
<path d="M2300 7620 c0 -5 7 -10 15 -10 8 0 15 5 15 10 0 6 -7 10 -15 10 -8 0
-15 -4 -15 -10z"/>
<path d="M2362 7481 c2 -7 7 -12 11 -12 12 1 9 15 -3 20 -7 2 -11 -2 -8 -8z"/>
<path d="M8314 8689 c-3 -6 0 -18 9 -26 18 -18 37 -9 37 18 0 21 -34 27 -46 8z"/>
<path d="M8404 8604 c-39 -86 -42 -116 -14 -144 21 -21 37 -24 64 -14 26 10
18 24 -14 24 -46 0 -49 35 -11 116 33 70 38 94 20 94 -5 0 -26 -34 -45 -76z"/>
<path d="M8573 8663 c-18 -6 -16 -40 1 -46 8 -3 20 1 27 9 10 12 9 18 -2 28
-8 8 -20 12 -26 9z"/>
<path d="M8363 8405 c-17 -7 -34 -11 -37 -8 -3 3 -13 3 -22 -1 -19 -7 -22 -2
48 -78 39 -41 83 -54 152 -44 45 7 96 38 96 58 0 6 8 17 18 24 20 15 25 12
-94 43 -93 24 -117 25 -161 6z m135 -30 c10 -10 -3 -11 -55 -7 -29 2 -53 9
-53 14 0 11 97 4 108 -7z m62 -39 c9 -1 1 -9 -19 -20 -45 -24 -133 -18 -162
10 -20 20 -19 20 73 17 51 -2 100 -5 108 -7z"/>
<path d="M6290 5173 c-2 -219 74 -3972 80 -3988 8 -19 8 -19 15 -1 5 10 -10
923 -31 2029 -30 1571 -42 2011 -51 2015 -10 3 -13 -13 -13 -55z"/>
<path d="M7000 5196 c0 -35 792 -4012 801 -4020 5 -5 12 -7 15 -3 11 11 -790
4030 -803 4035 -7 2 -13 -3 -13 -12z"/>
</g>
</svg>
